<svg width="15" height="24" viewBox="0 0 15 24" fill="none" xmlns="http://www.w3.org/2000/svg">
<path d="M3.83588 23.4081L14.3702 13.5067C14.5992 13.2915 14.7611 13.0583 14.8557 12.8072C14.9519 12.5561 15 12.287 15 12C15 11.713 14.9519 11.4439 14.8557 11.1928C14.7611 10.9417 14.5992 10.7085 14.3702 10.4933L3.83588 0.591927C3.41603 0.197309 2.88168 0 2.23283 0C1.58397 0 1.04962 0.197309 0.629772 0.591927C0.209925 0.986546 0 1.48879 0 2.09865C0 2.70852 0.209925 3.21076 0.629772 3.60538L9.56107 12L0.629772 20.3946C0.209925 20.7892 0 21.2915 0 21.9013C0 22.5112 0.209925 23.0135 0.629772 23.4081C1.04962 23.8027 1.58397 24 2.23283 24C2.88168 24 3.41603 23.8027 3.83588 23.4081Z" fill="#ADADAD"/>
</svg>
